<?xml version="1.0" standalone="no"?>
<!DOCTYPE svg PUBLIC "-//W3C//DTD SVG 20010904//EN"
 "http://www.w3.org/TR/2001/REC-SVG-20010904/DTD/svg10.dtd">
<svg version="1.0" xmlns="http://www.w3.org/2000/svg"
 width="628.000000pt" height="162.000000pt" viewBox="0 0 628.000000 162.000000"
 preserveAspectRatio="xMidYMid meet">

<g transform="translate(0.000000,162.000000) scale(0.100000,-0.100000)"
fill="#000000" stroke="none">
<path d="M654 1612 c-6 -4 -23 -58 -39 -119 l-27 -113 -79 0 -78 0 -3 43 -3
42 -105 0 -105 0 -5 -40 -5 -40 -63 -5 c-57 -5 -67 -9 -96 -41 -24 -26 -35
-49 -40 -85 -3 -27 -5 -216 -4 -419 3 -409 3 -409 67 -452 l34 -23 791 0 c767
0 792 1 823 20 63 38 63 36 63 490 0 436 0 440 -48 483 -11 10 -42 21 -69 25
-47 7 -48 8 -53 47 l-5 40 -135 0 -135 0 -3 -42 -3 -43 -59 0 c-70 0 -68 -3
-100 130 -13 52 -28 98 -34 102 -6 4 -114 8 -241 8 -126 0 -235 -4 -241 -8z
m480 -157 l28 -115 126 -1 c396 -2 389 -1 419 -32 l28 -27 0 -410 0 -410 -28
-27 -27 -28 -785 0 -785 0 -27 28 -28 27 0 410 0 410 28 27 c31 31 21 30 388
32 l156 1 23 93 c38 154 7 137 248 137 l208 0 28 -115z m423 -39 c3 -3 3 -12
-1 -21 -9 -23 -169 -17 -174 7 -2 9 4 18 14 20 26 5 155 0 161 -6z m-1179 -13
c-2 -14 -15 -18 -60 -19 -47 -1 -57 2 -61 17 -5 17 1 19 60 19 56 0 64 -2 61
-17z"/>
<path d="M810 1260 c-116 -25 -220 -108 -274 -220 -29 -60 -31 -73 -31 -170 0
-98 2 -110 32 -170 98 -199 330 -282 526 -190 75 35 152 112 189 188 31 62 33
73 33 172 0 95 -3 111 -29 168 -38 83 -132 171 -213 202 -66 25 -168 33 -233
20z m223 -68 c60 -26 147 -108 174 -164 47 -93 46 -223 -1 -317 -30 -58 -112
-136 -174 -164 -37 -17 -67 -21 -137 -22 -78 0 -97 4 -145 27 -76 37 -137 99
-173 175 -25 55 -30 77 -30 143 0 118 48 209 149 286 86 66 234 82 337 36z"/>
<path d="M745 1056 c-67 -31 -102 -103 -83 -172 6 -24 38 -64 96 -122 131
-131 128 -129 152 -107 11 10 17 22 13 28 -3 5 -2 7 4 4 10 -7 164 145 182
180 15 30 14 89 -4 123 -35 67 -107 93 -181 65 -32 -12 -48 -14 -57 -6 -22 18
-90 22 -122 7z m105 -56 c32 -25 46 -25 77 0 35 27 75 25 112 -6 26 -21 31
-33 31 -67 0 -39 -6 -48 -92 -135 l-92 -93 -88 92 c-48 50 -90 100 -94 111 -9
29 14 82 44 100 36 23 71 22 102 -2z"/>
<path d="M1390 1215 l0 -25 110 0 110 0 0 25 0 25 -110 0 -110 0 0 -25z"/>
<path d="M3690 1150 c-28 -28 -25 -64 6 -89 15 -12 33 -21 41 -21 21 0 63 46
63 70 0 28 -35 60 -65 60 -14 0 -34 -9 -45 -20z"/>
<path d="M5120 1150 c-28 -28 -25 -64 6 -89 15 -12 33 -21 41 -21 21 0 63 46
63 70 0 28 -35 60 -65 60 -14 0 -34 -9 -45 -20z"/>
<path d="M1980 860 l0 -290 28 -1 c15 -1 39 -2 55 -3 l27 -2 0 293 0 293 -55
0 -55 0 0 -290z"/>
<path d="M2313 940 c-28 -17 -33 -17 -33 -4 0 12 -11 14 -52 12 l-53 -3 0
-190 0 -190 28 1 c15 1 38 2 52 3 l25 1 0 123 c0 136 10 170 51 175 51 6 59
-16 59 -162 0 -73 2 -135 4 -137 2 -2 27 -2 55 -1 l51 4 0 121 c0 136 10 170
51 175 45 5 54 -18 59 -167 l5 -136 50 1 50 1 3 143 c2 127 0 147 -18 185 -38
78 -124 88 -196 23 -17 -15 -23 -16 -27 -5 -7 19 -69 47 -104 47 -15 0 -43 -9
-60 -20z"/>
<path d="M2872 939 c-77 -39 -119 -150 -92 -249 8 -29 27 -59 54 -86 53 -54
105 -64 170 -36 31 14 46 17 49 9 3 -7 24 -12 53 -11 l49 1 3 192 2 191 -55 0
c-42 0 -55 -3 -55 -15 0 -12 -6 -12 -37 5 -48 26 -87 25 -141 -1z m162 -110
c38 -45 37 -110 -3 -150 -46 -46 -106 -37 -136 21 -19 37 -19 73 0 110 31 59
98 69 139 19z"/>
<path d="M3312 939 c-58 -29 -93 -90 -99 -172 -4 -54 -1 -69 24 -117 48 -94
150 -126 225 -70 l28 21 0 -36 c0 -55 -23 -101 -55 -109 -37 -9 -80 9 -93 40
-10 21 -18 24 -67 24 -60 0 -62 -3 -41 -53 38 -93 169 -134 266 -85 35 18 51
35 70 73 24 49 25 55 25 270 l0 220 -52 3 c-43 2 -53 0 -53 -12 0 -20 -3 -20
-42 4 -42 26 -82 25 -136 -1z m163 -111 c24 -28 27 -39 22 -82 -3 -38 -11 -55
-31 -73 -46 -39 -103 -27 -131 27 -56 108 65 218 140 128z"/>
<path d="M4017 941 c-29 -15 -37 -16 -37 -5 0 10 -15 14 -55 14 l-55 0 2 -191
3 -192 50 0 50 0 2 114 c2 63 5 124 8 136 8 32 33 53 65 53 44 0 54 -28 56
-165 1 -66 2 -124 3 -130 0 -6 23 -9 51 -7 l50 4 0 145 c0 166 -10 201 -65
227 -44 21 -83 20 -128 -3z"/>
<path d="M4384 949 c-49 -14 -100 -78 -113 -141 -32 -151 73 -276 214 -254 50
8 105 44 128 84 l18 31 -26 6 c-14 3 -36 7 -48 10 -17 3 -31 -3 -47 -20 -47
-50 -130 -17 -130 51 0 24 0 24 125 24 l125 0 0 28 c0 76 -46 153 -107 178
-36 16 -92 17 -139 3z m118 -86 c8 -10 18 -26 21 -35 6 -16 -1 -18 -68 -18
-67 0 -74 2 -68 18 12 33 36 52 68 52 18 0 38 -8 47 -17z"/>
<path d="M5375 951 c-61 -27 -94 -116 -61 -166 9 -14 44 -39 77 -55 54 -28 60
-34 57 -58 -2 -22 -9 -28 -36 -30 -20 -2 -42 4 -59 16 l-27 19 -24 -29 c-21
-24 -22 -31 -11 -45 27 -32 98 -55 146 -48 68 10 114 57 120 121 6 62 -16 93
-97 132 -57 28 -68 47 -38 66 13 8 26 7 48 -1 27 -10 32 -9 50 14 11 14 20 29
20 33 0 23 -128 48 -165 31z"/>
<path d="M3682 758 l3 -193 50 1 50 0 3 192 2 192 -55 0 -55 0 2 -192z"/>
<path d="M4660 944 c0 -3 28 -41 61 -84 37 -47 59 -85 56 -94 -3 -8 -38 -55
-76 -104 -39 -49 -71 -91 -71 -93 0 -2 31 -3 68 -1 l68 3 37 60 c20 32 40 59
45 59 4 -1 27 -28 52 -62 l45 -60 63 -2 c45 -1 61 2 58 11 -3 7 -37 53 -76
103 -45 56 -69 94 -64 102 4 7 31 42 59 78 75 96 75 90 2 90 l-65 0 -32 -50
-32 -51 -36 51 -35 50 -63 0 c-35 0 -64 -2 -64 -6z"/>
<path d="M5110 761 l0 -189 51 -4 c28 -1 53 -1 55 1 2 2 4 89 4 193 l0 188
-55 0 -55 0 0 -189z"/>
</g>
</svg>
