<?xml version="1.0" standalone="no"?>
<!DOCTYPE svg PUBLIC "-//W3C//DTD SVG 20010904//EN"
 "http://www.w3.org/TR/2001/REC-SVG-20010904/DTD/svg10.dtd">
<svg version="1.0" xmlns="http://www.w3.org/2000/svg"
 width="123.000000pt" height="90.000000pt" viewBox="0 0 123.000000 90.000000"
 preserveAspectRatio="xMidYMid meet">

<g transform="translate(0.000000,90.000000) scale(0.100000,-0.100000)"
fill="#000000" stroke="none">
<path d="M475 733 c-11 -58 -22 -73 -56 -73 -22 0 -32 6 -36 20 -10 38 -96 38
-106 -1 -3 -12 -14 -19 -30 -19 -54 0 -57 -13 -57 -235 0 -172 2 -206 16 -219
13 -14 63 -16 392 -16 207 0 382 4 388 8 28 19 34 56 34 220 0 195 -8 230 -52
239 -18 4 -33 14 -35 25 -3 10 -13 18 -22 18 -9 0 -33 3 -53 6 -34 6 -39 4
-48 -20 -7 -20 -16 -26 -39 -26 -28 0 -30 4 -42 55 l-12 55 -117 0 -118 0 -7
-37z m240 -33 l11 -45 59 -8 c33 -4 86 -6 118 -3 95 7 97 4 97 -217 0 -142 -3
-188 -14 -203 -14 -18 -31 -19 -380 -22 -356 -3 -366 -2 -386 18 -19 19 -20
32 -20 198 0 226 1 227 95 227 140 0 185 5 185 18 0 6 5 29 11 50 l10 38 102
-3 101 -3 11 -45z m-355 -20 c0 -5 -14 -10 -31 -10 -17 0 -28 4 -24 10 3 6 17
10 31 10 13 0 24 -4 24 -10z m555 0 c4 -6 -12 -10 -39 -10 -25 0 -46 5 -46 10
0 6 18 10 39 10 22 0 43 -4 46 -10z"/>
<path d="M525 591 c-76 -35 -111 -102 -103 -193 6 -55 28 -92 78 -125 117 -80
280 3 280 143 0 61 -12 99 -43 133 -30 32 -94 61 -137 61 -19 0 -53 -9 -75
-19z m132 -12 c93 -35 136 -149 90 -234 -6 -11 -10 -24 -9 -28 1 -5 -2 -6 -7
-3 -5 3 -15 -2 -22 -11 -20 -23 -72 -43 -114 -43 -100 0 -181 103 -155 199 27
101 125 155 217 120z"/>
<path d="M540 512 c-28 -9 -50 -35 -50 -59 0 -16 19 -44 55 -81 l55 -57 51 52
c45 47 50 57 47 90 -4 44 -36 67 -75 52 -12 -4 -33 -5 -45 0 -13 4 -30 6 -38
3z m37 -23 c8 -8 20 -9 42 -1 25 9 34 8 51 -6 27 -22 17 -53 -34 -102 l-36
-34 -45 44 c-50 49 -56 71 -23 94 27 19 31 19 45 5z"/>
<path d="M835 590 c3 -5 26 -10 51 -10 24 0 44 5 44 10 0 6 -23 10 -51 10 -31
0 -48 -4 -44 -10z"/>
</g>
</svg>
